<?xml version="1.0" encoding="utf-8"?>
<!-- Generator: Adobe Illustrator 25.2.1, SVG Export Plug-In . SVG Version: 6.00 Build 0)  -->
<svg version="1.1" id="Layer_1" xmlns="http://www.w3.org/2000/svg" xmlns:xlink="http://www.w3.org/1999/xlink" x="0px" y="0px"
	 viewBox="0 0 381.2 325.1" style="enable-background:new 0 0 381.2 325.1;" xml:space="preserve">
<style type="text/css">
	.st0{fill:#FFE800;}
	.st1{fill:#363112;}
</style>
<g>
	<path class="st0" d="M190.6,39.2L32.3,197.5v100.2c0,15.1,12.3,27.4,27.4,27.4h261.8c15.1,0,27.3-12.2,27.3-27.2V197.4L190.6,39.2z
		"/>
</g>
<g>
	<path class="st1" d="M183,131.5c-0.3,0.3-0.6,0.4-1.2,0.4h-40.3c-0.4,0-0.6,0.2-0.6,0.6v15.8c0,0.4,0.2,0.6,0.6,0.6h25.8
		c0.4,0,0.8,0.2,1.2,0.4c0.3,0.3,0.4,0.6,0.4,1.2v15.1c0,0.4-0.2,0.8-0.4,1.1c-0.3,0.3-0.6,0.4-1.2,0.4h-25.8
		c-0.4,0-0.6,0.2-0.6,0.6v34.3c0,0.4-0.2,0.8-0.4,1.2c-0.3,0.3-0.6,0.4-1.2,0.4h-18.2c-0.4,0-0.8-0.2-1.2-0.4
		c-0.3-0.3-0.4-0.6-0.4-1.2v-86.7c0-0.4,0.2-0.8,0.4-1.2c0.3-0.3,0.6-0.4,1.2-0.4h60.6c0.4,0,0.8,0.2,1.2,0.4
		c0.3,0.3,0.4,0.6,0.4,1.2v15.1C183.4,130.8,183.2,131.2,183,131.5z"/>
	<path class="st1" d="M216,201.3c-5.3-2.2-9.4-5.5-12.2-9.8c-2.8-4.2-4.3-9.2-4.3-14.7v-2.5c0-0.4,0.2-0.8,0.4-1.2
		c0.3-0.3,0.6-0.4,1.2-0.4h17.8c0.4,0,0.8,0.2,1.2,0.4s0.4,0.6,0.4,1.2v1.5c0,2.8,1.4,5.3,4.2,7.4c2.8,2.1,6.6,3.2,11.4,3.2
		c3.8,0,6.6-0.8,8.4-2.5c1.9-1.6,2.7-3.6,2.7-5.6c0-1.7-0.5-3.1-1.6-4.2c-1.1-1.1-2.5-2-4.3-2.7c-1.9-0.7-4.5-1.8-8.4-3
		c-0.5-0.3-1.1-0.4-1.5-0.5c-0.5-0.2-1-0.3-1.4-0.4c-5.5-1.9-10.4-3.7-14.5-5.9c-4.1-2.1-7.6-5-10.6-8.7c-2.9-3.7-4.4-8.3-4.4-13.8
		c0-5.3,1.4-10,4.2-14c2.8-4,6.6-7,11.7-9.2c4.9-2.1,10.6-3.2,16.8-3.2c6.6,0,12.6,1.2,17.8,3.6c5.3,2.4,9.4,5.8,12.4,10.2
		c3,4.4,4.5,9.4,4.5,15.1v1.9c0,0.4-0.2,0.8-0.4,1.2c-0.3,0.3-0.6,0.4-1.2,0.4h-17.8c-0.4,0-0.8-0.2-1.2-0.4
		c-0.3-0.3-0.4-0.6-0.4-1.2v-0.9c0-3-1.3-5.6-4-7.9c-2.7-2.3-6.2-3.5-10.6-3.5c-3.3,0-6,0.7-7.8,2c-1.9,1.3-2.8,3.3-2.8,5.8
		c0,1.9,0.6,3.5,1.9,4.7c1.2,1.2,3,2.4,5.5,3.5c2.5,1.1,6.4,2.5,11.7,4.2c6,2,10.6,3.9,14,5.4c3.3,1.5,6.5,4,9.4,7.6
		c2.9,3.5,4.5,8,4.5,13.6c0,5.5-1.4,10.3-4.2,14.3c-2.8,4-6.8,7.1-11.9,9.3c-5.1,2.2-11,3.3-17.8,3.3
		C227.5,204.7,221.3,203.6,216,201.3z"/>
	<path class="st1" d="M175.8,258.3c7.8,4.1,11.7,11,11.7,20.6c0,8.6-2.9,15-8.9,19.1c-5.9,4.2-13.6,6.2-23.2,6.2h-34.2
		c-0.4,0-0.8-0.2-1.2-0.4c-0.3-0.3-0.4-0.6-0.4-1.2v-86.8c0-0.4,0.2-0.8,0.4-1.2c0.3-0.3,0.6-0.4,1.2-0.4h33.2
		c10.4,0,18.3,2,23.7,5.9s8,10.3,8,19.1c0,8.4-3.5,14.4-10.3,18.1C175.3,257.8,175.3,258,175.8,258.3z M141,233.2v16.2
		c0,0.4,0.2,0.6,0.6,0.6h12.7c3.6,0,6.2-0.8,8.1-2.2c1.9-1.5,2.8-3.6,2.8-6.3c0-2.8-0.9-5-2.8-6.6c-1.9-1.5-4.5-2.3-8.1-2.3h-12.7
		C141.3,232.6,141,232.8,141,233.2z M163.4,283.5c1.9-1.5,2.8-3.9,2.8-6.9c0-2.8-0.9-5.2-2.8-6.8c-1.9-1.5-4.5-2.4-8-2.4h-13.7
		c-0.4,0-0.6,0.2-0.6,0.6v17.3c0,0.4,0.2,0.6,0.6,0.6h13.7C158.8,286,161.5,285.1,163.4,283.5z"/>
	<path class="st1" d="M214.1,301.5c-5.3-2.8-9.4-6.7-12.3-11.8c-2.8-5.1-4.4-11-4.4-17.6v-25.7c0-6.5,1.5-12.3,4.4-17.3
		c2.8-5,6.9-8.9,12.3-11.7c5.3-2.8,11.3-4.2,18.3-4.2c6.9,0,13,1.4,18.3,4.2c5.3,2.8,9.4,6.7,12.3,11.7c2.8,5,4.4,10.8,4.4,17.3
		v25.7c0,6.7-1.5,12.6-4.4,17.6s-7,8.9-12.3,11.8c-5.3,2.8-11.4,4.2-18.3,4.2S219.5,304.3,214.1,301.5z M242.4,283.5
		c2.5-2.7,3.8-6.2,3.8-10.6v-26.5c0-4.4-1.2-7.9-3.8-10.6c-2.5-2.7-5.9-4-10-4c-4,0-7.3,1.3-9.9,4c-2.6,2.7-3.8,6.2-3.8,10.6v26.5
		c0,4.5,1.2,8,3.8,10.6c2.5,2.7,5.8,4,9.9,4S239.9,286.1,242.4,283.5z"/>
</g>
<path class="st1" d="M374.7,198.2c3.6-3.6,3.6-9.4,0-13L190.6,1.1l0,0l0,0L6.5,185.2c-3.6,3.6-3.6,9.4,0,13l6,6
	c3.6,3.6,9.4,3.6,13,0L184.1,45.7c3.6-3.6,9.4-3.6,13,0l158.5,158.5c3.6,3.6,9.4,3.6,13,0L374.7,198.2z"/>
</svg>
